@startuml
title Triplo Application Smartphone App - Component Diagram
top to bottom direction
skinparam rectangle {
  BackgroundColor transparent
  BorderColor transparent
  FontColor transparent
}

rectangle  {


  () HomeGUI
  () SearchGUI

  '() RideSummaryReviewGUI
  () LoginRegistrationGUI
  () UserProfileGUI
  
  () trekkingGUI
  () GeowatchGUI
  () SettingsGUI
  () DiaryGUI
}

component "Mobile Triplo Application" {

  portout p1
  portout p2
  'portout p3
  
  portout pgoogleauth
  portout pfirebaseauth
  portout pfirebasefirestore
  portout pfirebasestorage

'portout p36
'portout p37
'portout p38
'portout pe1
'portout pe2
'portout pOS
'portout pe6
'portout pe7
'portout pe8

  portin p5
  portin p6
  portin p7
  portin p8
  portin p9
  portin p10
  portin p11
  portin p12

  package "View" #476bb5ff{
    [HomePage]
    [SearchPage]
    [UserProfilePage]
    [LoginRegistrationPage]
    [trekkingPage]
    [GeowatchPage]
    [SettingsPage]
    [DiaryPage]
  }
 
  rectangle "provaaa" {
  


  package "controller" #aaaaaa {
    'package "base resources controller" as backendcontroller{
    package "domain controller" as domaincontroller{
    [DiaryController]
    
    [UserController]
    [trekkingController]
    [challengecontroller]

    }
    [servicecontroller]

    '}

    [languagecontroller]
  }
}
  'package "Services" {
    '[BackendAPIHandler]
    '[OSAPIHandler]
    '[SensorLocalService]
    '[GPSLocalService]
    
    '[WeatherLocalService]
    
  '}

'rectangle "Prova" {
   
  package "Model" #a62b22ff{
    [DiaryModel]
    [UserModel]
    [trekkingModel]
    [challengeModel]
  }
  
  'portout p1
  '[OSservice]
  'interface lib_i
'}

package "OSservice" {
  [memoryservice]
  [permissionservice]
  [notificationservice]
  [geoservice]
}

interface geo_i
servicecontroller -[#red,dashed]-( geo_i
geo_i -[#red,dashed]- geoservice


package "lib" {
    [geolocator]
    [compass]
    [shared preferences] as sharedpreferences
    [cache]
    'geolocator -[hidden]right- cache

    [local notifications] as notifications
    [permission handler] as permission
    [WorkManager]
  }

interface notification_i
challengecontroller -[#brown,dashed]-( notification_i
notification_i -[#brown,dashed]- notificationservice

interface mem_i
challengecontroller -[#blue,dashed]-( mem_i
mem_i -[#blue,dashed]- memoryservice

languagecontroller -[#blue,dashed]-( mem_i
trekkingController -[#brown,dashed]-( notification_i
trekkingController -[#blue,dashed]-( mem_i

interface sp_i
memoryservice --( sp_i
sp_i -- sharedpreferences 

interface cache_i
memoryservice --( cache_i
cache_i -- cache
interface permission_i
servicecontroller -[#green,dashed]-( permission_i
permission_i -[#green,dashed]- permissionservice
interface gl_i
geoservice --( gl_i

gl_i -- geolocator

interface lnotifications_i
notificationservice --( lnotifications_i
lnotifications_i -- notifications

interface p_i
permissionservice --( p_i

p_i -- permission
permissionservice --( sp_i

interface compass_i
permissionservice --( compass_i
compass_i -- compass

interface dmi
interface umi
interface expi 
interface qi
  DiaryController -down-( dmi
  dmi -down- DiaryModel
  UserController -down-( umi
  umi -down- UserModel
  trekkingController -down( expi
  expi -down- trekkingModel
  challengecontroller -down-( qi
  qi -down- challengeModel
'qi -[hidden]- OSservice
dmi -[hidden] qi
umi -[hidden] qi
expi -[hidden] qi

interface diary_i
interface user_i
interface trekking_i 
interface challenge_i
interface language_i
interface api_i


HomePage -down[#green]-( api_i
api_i -[#green]- servicecontroller


HomePage -down[#red]-( trekking_i 
trekking_i -down[#red]- trekkingController

LoginRegistrationPage -down[#blue]-( user_i
user_i -down[#blue]- UserController


'LoginRegistrationPage -down[#red]-( diary_i

diary_i -down[#734014]- DiaryController


LoginRegistrationPage -down-( language_i
language_i -- languagecontroller

UserProfilePage -down[#blue]-( user_i
UserProfilePage -[#red]-( trekking_i
UserProfilePage -[#734014]-( diary_i

trekkingPage -[#red]-( trekking_i 
'trekkingPage -[#blue]-( user_i
trekkingPage -[#green]-( api_i
trekkingPage --( challenge_i

challenge_i -- challengecontroller

DiaryPage -[#734014]-( diary_i
DiaryPage -[#blue]-( user_i
DiaryPage -[#red]-( trekking_i 

GeowatchPage -[#green]-( api_i
GeowatchPage -[#red]-( trekking_i

SettingsPage -[#blue]-( user_i
SettingsPage --( language_i
SettingsPage -[#red]-( trekking_i

SearchPage -[#734014]-( diary_i
SearchPage -[#blue]-( user_i
SearchPage -[#red]-( trekking_i 

'languagecontroller -[hidden]right-> servicecontroller

lib -- p1
'lib -[hidden]- Model
'geolocator -[hidden]up- DiaryModel
'challengecontroller -- p3
'trekkingController --p3
'UserController -- p3
'DiaryController -- p3
'domaincontroller -- p3
domaincontroller -- pfirebasefirestore
domaincontroller -- pfirebasestorage

'interface lib_i
'controller -down-( lib_i
'lib_i -down- lib

'interface " " as prova #transparent

'package "Service" {
    [internetservice]
    [authservice]
    '[OSservice]
 ' } 
'internetservice -[hidden]up- authservice
'OSservice -[hidden]up- internetservice
 interface authservice_i
 DiaryController -[#7b4342,dashed]-( authservice_i
 trekkingController -[#7b4342,dashed]-( authservice_i
 UserController -[#7b4342,dashed]-( authservice_i
 authservice_i -[#7b4342,dashed]- authservice
 authservice -- pgoogleauth
 authservice -- pfirebaseauth
 authservice -- pfirebasefirestore


 rectangle "Background" {
  component "Background_Service"
  Background_Service --( WorkManager_i
 WorkManager_i -- WorkManager
 }
 Background_Service -[#green]-( api_i
 Background_Service -[#blue,dashed]-( mem_i
 Background_Service -[#red]-( trekking_i
 Background_Service -[#brown,dashed]-( notification_i
 
 'compass -- WorkManager

'interface lib_i
'OSservice --( lib_i
'lib_i -- lib
'interface osservice_i
'servicecontroller --( osservice_i
'osservice_i -- OSservice
'languagecontroller --( osservice_i
'challengecontroller --( osservice_i
}


'Model -[hidden] authservice_i
'UserController --( osservice_i
'trekkingController --( osservice_i
servicecontroller -- p2
'controller --( osservice_i
'package "Mobile OS" {
'  [OS_API]
'}

'package "Triplo Application Backend" {
'  [Triplo Application_API]
'}
' UI → Controllers
'[HomePage] --> [PathController]
'[SearchPage] --> [PathController]
'[RideSummaryReviewUI] --> [ReviewController]
'[UserProfilePage] --> [UserController]
'[LoginRegistrationPage] --> [UserController]

' Controllers → Services
'[PathController] --> [BackendAPIClient]
'[ReviewController] --> [BackendAPIClient]
'[UserController] --> [BackendAPIClient]

'[PathController] --> [GPSService]
'[ReviewController] --> [LocalStorageService]

' Services → OS
'[GPSService] --> [OS_API]
'[SensorService] --> [OS_API]
'[LocalStorageService] --> [OS_API]

' Backend communication
'[BackendAPIClient] --> [Triplo Application_API]

' Domain usage
'[PathController] ..> [Path]
'[ReviewController] ..> [Review]
'[UserController] ..> [User]

'Model -[hidden]right- lib_i

'Model -[hidden]right- authservice_i
'() "HomeGUI"
'() "SearchGUI"
'() "RideSummaryReviewGUI"
'() "UserProfileGUI"
'() "LoginRegistrationGUI"


HomePage -- p5
p5 -up- HomeGUI

SearchPage -- p6
p6 -up- SearchGUI

'RideSummaryReviewUI -- p7
'p7 -up- RideSummaryReviewGUI

UserProfilePage -- p8
p8 -up- UserProfileGUI

LoginRegistrationPage -- p12
p12 -up- LoginRegistrationGUI

GeowatchPage -- p11
p11 -up- GeowatchGUI

SettingsPage -- p9
p9 -up- SettingsGUI

trekkingPage -- p10
p10 -up- trekkingGUI

DiaryPage -- p7
p7 -up- DiaryGUI

'UserController -down- p2
' View → Controller
'[HomePage] -down-> [BikePathController]
'[SearchPage] -down-> [BikePathController]
'[RideSummaryReviewUI] -down-> [ReviewController]
'[UserProfilePage] -down-> [UserController]
'[LoginRegistrationPage] -down-> [UserController]

' Controller → Model
'[BikePathController] -down-> [BikePathModel]
'[tripController] -down-> [tripModel]
'[ReviewController] -down-> [ReviewModel]
'[UserController] -down-> [UserModel]

' Controller → Backend
'[BikePathController] -right-> [BackendAPIHandler]
'[tripController] -right-> [BackendAPIHandler]
'[ReviewController] -right-> [BackendAPIHandler]
'[UserController] -right-> [BackendAPIHandler]
' Controller → OS
'[tripController] -right-> [OSAPIHandler]
'[ReviewController] -right-> [OSAPIHandler]

' Controller → External Auth
'[UserController] -right-> [ExternalAuthAPIHandler]

'"HomeGUI" -[hidden]-> "SearchGUI"
'"SearchGUI" -[hidden]-> "RideSummaryReviewGUI"
'"RideSummaryReviewGUI" -[hidden]-> "LoginRegistrationGUI"
'"LoginRegistrationGUI" -[hidden]-> "UserProfileGUI"

'"User Interface (External)" -[hidden]-> "Mobile App (Triplo Application)"

'interface bgwi
'UserController --( bgwi
'bgwi -- BackendAPIHandler

'interface external_API
'p2 --( external_API

internetservice -[#green]-( api_i

'UserController -- p1
'UserController -- p36
'UserController -- p38
'servicecontroller -- p36
'servicecontroller -- p37
'servicecontroller -- p38

'HomeGUI -[hidden]-> SearchGUI
'SearchGUI -[hidden]-> RideSummaryReviewGUI
'RideSummaryReviewGUI -[hidden]-> UserProfileGUI
'UserProfileGUI -[hidden]-> LoginRegistrationGUI

'servicecontroller -down- p2
'pe1 -down- OpenTopoMap

'servicecontroller -down- pe2
'pe2 -down- GSW

'servicecontroller -down- pe3
'pe3 -down- OpenWeather

'servicecontroller -down- pe6
'pe6 -down- Weatherbit

'servicecontroller -down- pe7
'pe7 -down- DemoMeteoServer

'servicecontroller -down- pe8
'pe8 -down- GoogleAuth

'external_API -- GoogleAuth

@enduml
